<svg width="18" height="18" viewBox="0 0 18 18" fill="none" xmlns="http://www.w3.org/2000/svg">
<path d="M3.75 4.125C3.75 3.42881 4.02656 2.76113 4.51884 2.26884C5.01113 1.77656 5.67881 1.5 6.375 1.5H9V6.75H6.375C5.67881 6.75 5.01113 6.47344 4.51884 5.98116C4.02656 5.48887 3.75 4.82119 3.75 4.125Z" stroke="#272637" stroke-width="1.5" stroke-linecap="round" stroke-linejoin="round"/>
<path d="M9 1.5H11.625C11.9697 1.5 12.3111 1.5679 12.6295 1.69982C12.948 1.83173 13.2374 2.02509 13.4812 2.26884C13.7249 2.5126 13.9183 2.80198 14.0502 3.12046C14.1821 3.43894 14.25 3.78028 14.25 4.125C14.25 4.46972 14.1821 4.81106 14.0502 5.12954C13.9183 5.44802 13.7249 5.7374 13.4812 5.98116C13.2374 6.22491 12.948 6.41827 12.6295 6.55018C12.3111 6.6821 11.9697 6.75 11.625 6.75H9V1.5Z" stroke="#272637" stroke-width="1.5" stroke-linecap="round" stroke-linejoin="round"/>
<path d="M9 9.375C9 9.03028 9.0679 8.68894 9.19982 8.37046C9.33173 8.05198 9.52509 7.7626 9.76884 7.51884C10.0126 7.27509 10.302 7.08173 10.6205 6.94982C10.9389 6.8179 11.2803 6.75 11.625 6.75C11.9697 6.75 12.3111 6.8179 12.6295 6.94982C12.948 7.08173 13.2374 7.27509 13.4812 7.51884C13.7249 7.7626 13.9183 8.05198 14.0502 8.37046C14.1821 8.68894 14.25 9.03028 14.25 9.375C14.25 9.71972 14.1821 10.0611 14.0502 10.3795C13.9183 10.698 13.7249 10.9874 13.4812 11.2312C13.2374 11.4749 12.948 11.6683 12.6295 11.8002C12.3111 11.9321 11.9697 12 11.625 12C11.2803 12 10.9389 11.9321 10.6205 11.8002C10.302 11.6683 10.0126 11.4749 9.76884 11.2312C9.52509 10.9874 9.33173 10.698 9.19982 10.3795C9.0679 10.0611 9 9.71972 9 9.375V9.375Z" stroke="#272637" stroke-width="1.5" stroke-linecap="round" stroke-linejoin="round"/>
<path d="M3.75 14.625C3.75 13.9288 4.02656 13.2611 4.51884 12.7688C5.01113 12.2766 5.67881 12 6.375 12H9V14.625C9 15.3212 8.72344 15.9889 8.23116 16.4812C7.73887 16.9734 7.07119 17.25 6.375 17.25C5.67881 17.25 5.01113 16.9734 4.51884 16.4812C4.02656 15.9889 3.75 15.3212 3.75 14.625Z" stroke="#272637" stroke-width="1.5" stroke-linecap="round" stroke-linejoin="round"/>
<path d="M3.75 9.375C3.75 8.67881 4.02656 8.01113 4.51884 7.51884C5.01113 7.02656 5.67881 6.75 6.375 6.75H9V12H6.375C5.67881 12 5.01113 11.7234 4.51884 11.2312C4.02656 10.7389 3.75 10.0712 3.75 9.375Z" stroke="#272637" stroke-width="1.5" stroke-linecap="round" stroke-linejoin="round"/>
</svg>
