<svg width="18" height="18" viewBox="0 0 18 18" fill="none" xmlns="http://www.w3.org/2000/svg">
<path d="M12.0513 16V13.2392C12.0782 12.8991 12.032 12.5571 11.9156 12.2361C11.7992 11.9151 11.6154 11.6223 11.3764 11.3773C13.6308 11.1276 16 10.2787 16 6.3837C15.9998 5.3877 15.6142 4.4299 14.9231 3.70854C15.2504 2.83716 15.2272 1.87399 14.8585 1.01911C14.8585 1.01911 14.0113 0.769432 12.0513 2.07491C10.4058 1.63178 8.67117 1.63178 7.02564 2.07491C5.06564 0.769432 4.21846 1.01911 4.21846 1.01911C3.84971 1.87399 3.82657 2.83716 4.15385 3.70854C3.45753 4.43525 3.07155 5.40171 3.07692 6.4051C3.07692 10.2716 5.44615 11.1205 7.70051 11.3987C7.46431 11.6413 7.28214 11.9305 7.16586 12.2476C7.04959 12.5647 7.00181 12.9026 7.02564 13.2392V13.8346M7.02564 16V13.8346M7.02564 13.8346C3.4359 14.8835 3.14334 12.1953 2 11.7197" stroke="#272637" stroke-width="1.5" stroke-linecap="round" stroke-linejoin="round"/>
</svg>
