<svg width="18" height="19" viewBox="0 0 18 19" fill="none" xmlns="http://www.w3.org/2000/svg">
<path d="M15.7487 10.0163C15.6307 11.293 15.1516 12.5096 14.3674 13.5239C13.5832 14.5382 12.5263 15.3082 11.3205 15.7437C10.1146 16.1793 8.80969 16.2624 7.55833 15.9834C6.30697 15.7044 5.16095 15.0747 4.25437 14.1682C3.3478 13.2616 2.71816 12.1156 2.43914 10.8642C2.16011 9.61284 2.24324 8.30789 2.6788 7.10205C3.11436 5.89621 3.88433 4.83935 4.89861 4.05514C5.9129 3.27093 7.12955 2.79181 8.40621 2.67383C7.65877 3.68503 7.29909 4.93092 7.3926 6.18489C7.48612 7.43886 8.0266 8.61762 8.91576 9.50678C9.80491 10.3959 10.9837 10.9364 12.2376 11.0299C13.4916 11.1234 14.7375 10.7638 15.7487 10.0163Z" stroke="#272637" stroke-width="1.5" stroke-linecap="round" stroke-linejoin="round"/>
</svg>
