<svg width="18" height="18" viewBox="0 0 18 18" fill="none" xmlns="http://www.w3.org/2000/svg">
<path d="M10.0593 13.591L10.0693 13.6035L10.0798 13.6155C10.2744 13.8386 10.375 14.1081 10.375 14.375C10.375 14.9958 9.87079 15.5 9.25 15.5C5.53171 15.5 2.5 12.4683 2.5 8.75C2.5 5.03171 5.53171 2 9.25 2C13.0446 2 16 4.76664 16 8C16 10.0683 14.3183 11.75 12.25 11.75H10.9225C10.2983 11.75 9.7975 12.2508 9.7975 12.875C9.7975 13.1853 9.92912 13.4282 10.0593 13.591Z" stroke="#272637" stroke-width="1.5"/>
<path d="M13 8H13.0075" stroke="#272637" stroke-width="1.5" stroke-linecap="round" stroke-linejoin="round"/>
<path d="M11 5.5H11.0075" stroke="#272637" stroke-width="1.5" stroke-linecap="round" stroke-linejoin="round"/>
<path d="M8 5.5H8.0075" stroke="#272637" stroke-width="1.5" stroke-linecap="round" stroke-linejoin="round"/>
<path d="M5.5 8H5.5075" stroke="#272637" stroke-width="1.5" stroke-linecap="round" stroke-linejoin="round"/>
</svg>
