<svg width="36" height="36" viewBox="0 0 36 36" fill="none" xmlns="http://www.w3.org/2000/svg">
<path d="M20.3139 27.0259L20.3305 27.0467L20.348 27.0667C20.7749 27.556 21 28.1526 21 28.75C21 30.1296 19.8796 31.25 18.5 31.25C10.9254 31.25 4.75 25.0746 4.75 17.5C4.75 9.92536 10.9254 3.75 18.5 3.75C26.2019 3.75 32.25 9.37107 32.25 16C32.25 20.2746 28.7746 23.75 24.5 23.75H21.845C20.7346 23.75 19.845 24.6396 19.845 25.75C19.845 26.2972 20.0769 26.7296 20.3139 27.0259Z" stroke="#272637" stroke-width="2.5"/>
<path d="M26 16H26.015" stroke="#272637" stroke-width="2.5" stroke-linecap="round" stroke-linejoin="round"/>
<path d="M22 11H22.015" stroke="#272637" stroke-width="2.5" stroke-linecap="round" stroke-linejoin="round"/>
<path d="M16 11H16.015" stroke="#272637" stroke-width="2.5" stroke-linecap="round" stroke-linejoin="round"/>
<path d="M11 16H11.015" stroke="#272637" stroke-width="2.5" stroke-linecap="round" stroke-linejoin="round"/>
</svg>
