<svg width="18" height="19" viewBox="0 0 18 19" fill="none" xmlns="http://www.w3.org/2000/svg">
<g clip-path="url(#clip0_784:2888)">
<path d="M9 13.1738C11.0711 13.1738 12.75 11.4949 12.75 9.42383C12.75 7.35276 11.0711 5.67383 9 5.67383C6.92893 5.67383 5.25 7.35276 5.25 9.42383C5.25 11.4949 6.92893 13.1738 9 13.1738Z" stroke="#272637" stroke-width="1.5" stroke-linecap="round" stroke-linejoin="round"/>
<path d="M9 1.17383V2.67383" stroke="#272637" stroke-width="1.5" stroke-linecap="round" stroke-linejoin="round"/>
<path d="M9 16.1738V17.6738" stroke="#272637" stroke-width="1.5" stroke-linecap="round" stroke-linejoin="round"/>
<path d="M3.16406 3.58887L4.22906 4.65387" stroke="#272637" stroke-width="1.5" stroke-linecap="round" stroke-linejoin="round"/>
<path d="M13.7695 14.1934L14.8345 15.2584" stroke="#272637" stroke-width="1.5" stroke-linecap="round" stroke-linejoin="round"/>
<path d="M0.75 9.42383H2.25" stroke="#272637" stroke-width="1.5" stroke-linecap="round" stroke-linejoin="round"/>
<path d="M15.75 9.42383H17.25" stroke="#272637" stroke-width="1.5" stroke-linecap="round" stroke-linejoin="round"/>
<path d="M3.16406 15.2584L4.22906 14.1934" stroke="#272637" stroke-width="1.5" stroke-linecap="round" stroke-linejoin="round"/>
<path d="M13.7695 4.65387L14.8345 3.58887" stroke="#272637" stroke-width="1.5" stroke-linecap="round" stroke-linejoin="round"/>
</g>
<defs>
<clipPath id="clip0_784:2888">
<rect width="18" height="18" fill="white" transform="translate(0 0.423828)"/>
</clipPath>
</defs>
</svg>
