<svg width="20" height="20" viewBox="0 0 20 20" fill="none" xmlns="http://www.w3.org/2000/svg">
<path fill-rule="evenodd" clip-rule="evenodd" d="M3 5C1.89543 5 1 5.89543 1 7V16C1 18.2091 2.79086 20 5 20H15C17.2091 20 19 18.2091 19 16V7C19 5.89543 18.1046 5 17 5H3ZM8 10C7.44772 10 7 10.4477 7 11C7 11.5523 7.44772 12 8 12H12C12.5523 12 13 11.5523 13 11C13 10.4477 12.5523 10 12 10H8Z" fill="#28BE72"/>
<path fill-rule="evenodd" clip-rule="evenodd" d="M4 0C1.79086 0 0 1.79086 0 4V5C0 6.10457 0.895431 7 2 7H18C19.1046 7 20 6.10457 20 5V4C20 1.79086 18.2091 0 16 0H4ZM4.5 2C3.67157 2 3 2.67157 3 3.5C3 4.32843 3.67157 5 4.5 5H15.5C16.3284 5 17 4.32843 17 3.5C17 2.67157 16.3284 2 15.5 2H4.5Z" fill="#28BE72"/>
</svg>
