<svg width="26" height="26" viewBox="0 0 26 26" fill="none" xmlns="http://www.w3.org/2000/svg">
<path fill-rule="evenodd" clip-rule="evenodd" d="M13.8405 20.2375L13.8139 20.2042C13.54 19.8618 13.2348 19.3149 13.2348 18.5973C13.2348 17.1894 14.3686 16.0557 15.7765 16.0557H17.694C20.1753 16.0557 22.194 14.0369 22.194 11.5557C22.194 7.48004 18.4289 3.80566 13.3607 3.80566C8.49608 3.80566 4.52734 7.7744 4.52734 12.639C4.52734 17.5036 8.49608 21.4723 13.3607 21.4723C13.7511 21.4723 14.069 21.1544 14.069 20.764C14.069 20.6114 14.0116 20.4336 13.8685 20.2696L13.8405 20.2375ZM17.694 18.0557C21.2798 18.0557 24.194 15.1415 24.194 11.5557C24.194 6.18233 19.3298 1.80566 13.3607 1.80566C7.39151 1.80566 2.52734 6.66983 2.52734 12.639C2.52734 18.6082 7.39151 23.4723 13.3607 23.4723C14.8557 23.4723 16.069 22.259 16.069 20.764C16.069 20.5233 16.0359 20.2854 15.9724 20.0557C15.9713 20.0514 15.9701 20.0472 15.9689 20.0429C15.921 19.8731 15.8566 19.7078 15.7765 19.5492C15.6698 19.3376 15.5353 19.1378 15.3757 18.9548C15.289 18.8465 15.2348 18.7273 15.2348 18.5973C15.2348 18.294 15.4732 18.0557 15.7765 18.0557H17.694Z" fill="#F178D7"/>
<path d="M9 12.5C9 13.3284 8.32843 14 7.5 14C6.67157 14 6 13.3284 6 12.5C6 11.6716 6.67157 11 7.5 11C8.32843 11 9 11.6716 9 12.5Z" fill="#F178D7"/>
<path d="M12 7.5C12 8.32843 11.3284 9 10.5 9C9.67157 9 9 8.32843 9 7.5C9 6.67157 9.67157 6 10.5 6C11.3284 6 12 6.67157 12 7.5Z" fill="#F178D7"/>
<path d="M18 7.5C18 8.32843 17.3284 9 16.5 9C15.6716 9 15 8.32843 15 7.5C15 6.67157 15.6716 6 16.5 6C17.3284 6 18 6.67157 18 7.5Z" fill="#F178D7"/>
<path d="M20 12.5C20 13.3284 19.3284 14 18.5 14C17.6716 14 17 13.3284 17 12.5C17 11.6716 17.6716 11 18.5 11C19.3284 11 20 11.6716 20 12.5Z" fill="#F178D7"/>
</svg>
