<svg width="24" height="24" viewBox="0 0 24 24" fill="none" xmlns="http://www.w3.org/2000/svg">
<rect x="2" y="2" width="20" height="20" rx="3" stroke="#59A3DE" stroke-width="2"/>
<path d="M9.42773 6.29492C9.59635 6.29492 9.73991 6.31543 9.8584 6.35645C9.98145 6.39746 10.0794 6.45443 10.1523 6.52734C10.2298 6.60026 10.2845 6.68457 10.3164 6.78027C10.3529 6.87598 10.3711 6.97852 10.3711 7.08789C10.3711 7.30664 10.3005 7.49349 10.1592 7.64844C10.0225 7.80339 9.79688 7.88086 9.48242 7.88086C9.27734 7.88997 9.09505 7.93783 8.93555 8.02441C8.86719 8.06087 8.79883 8.10872 8.73047 8.16797C8.66667 8.22721 8.6097 8.30013 8.55957 8.38672C8.50944 8.46875 8.46842 8.56901 8.43652 8.6875C8.40462 8.80599 8.38867 8.94271 8.38867 9.09766V10.041C8.38867 10.36 8.35449 10.6449 8.28613 10.8955C8.21777 11.1416 8.13574 11.3512 8.04004 11.5244C7.94889 11.6976 7.85547 11.8343 7.75977 11.9346C7.66406 12.0303 7.59115 12.0872 7.54102 12.1055C7.59115 12.1237 7.66406 12.1829 7.75977 12.2832C7.85547 12.3789 7.94889 12.5156 8.04004 12.6934C8.13574 12.8665 8.21777 13.0785 8.28613 13.3291C8.35449 13.5752 8.38867 13.8555 8.38867 14.1699V15.373C8.38867 15.5143 8.40462 15.6396 8.43652 15.749C8.46842 15.8538 8.50944 15.9473 8.55957 16.0293C8.6097 16.1068 8.66667 16.1729 8.73047 16.2275C8.79883 16.2822 8.86719 16.3278 8.93555 16.3643C9.09505 16.4463 9.27734 16.4941 9.48242 16.5078C9.79688 16.5078 10.0225 16.5853 10.1592 16.7402C10.3005 16.8952 10.3711 17.082 10.3711 17.3008C10.3711 17.4102 10.3506 17.5127 10.3096 17.6084C10.2731 17.7041 10.207 17.7884 10.1113 17.8613C10.0156 17.9342 9.88802 17.9912 9.72852 18.0322C9.56901 18.0732 9.36849 18.0938 9.12695 18.0938C8.63021 18.0664 8.18815 17.9479 7.80078 17.7383C7.63672 17.6517 7.47493 17.5378 7.31543 17.3965C7.15592 17.2598 7.01237 17.0934 6.88477 16.8975C6.76172 16.6969 6.66146 16.4622 6.58398 16.1934C6.51107 15.9199 6.47461 15.6055 6.47461 15.25V13.9648C6.47461 13.7552 6.45182 13.582 6.40625 13.4453C6.36523 13.304 6.31055 13.1901 6.24219 13.1035C6.17383 13.0124 6.09635 12.9395 6.00977 12.8848C5.92318 12.8301 5.83659 12.7799 5.75 12.7344C5.6862 12.6979 5.62467 12.6615 5.56543 12.625C5.51074 12.5885 5.46289 12.5475 5.42188 12.502C5.38086 12.4518 5.34668 12.3971 5.31934 12.3379C5.29655 12.2741 5.28516 12.1966 5.28516 12.1055C5.28516 11.9277 5.32845 11.7979 5.41504 11.7158C5.50618 11.6338 5.61784 11.5586 5.75 11.4902C5.83659 11.4447 5.92318 11.3945 6.00977 11.3398C6.09635 11.2852 6.17383 11.2145 6.24219 11.1279C6.31055 11.0368 6.36523 10.9206 6.40625 10.7793C6.45182 10.638 6.47461 10.4603 6.47461 10.2461V8.76953C6.47461 8.35482 6.5498 7.99251 6.7002 7.68262C6.85514 7.37272 7.06478 7.11523 7.3291 6.91016C7.59798 6.70508 7.91016 6.55241 8.26562 6.45215C8.62565 6.34733 9.01302 6.29492 9.42773 6.29492ZM18.6508 12.1055C18.6508 12.1966 18.6371 12.2741 18.6098 12.3379C18.587 12.3971 18.5551 12.4518 18.5141 12.502C18.473 12.5475 18.4229 12.5885 18.3637 12.625C18.309 12.6615 18.2497 12.6979 18.1859 12.7344C18.1039 12.7799 18.0196 12.8301 17.933 12.8848C17.8464 12.9395 17.7689 13.0124 17.7006 13.1035C17.6322 13.1901 17.5753 13.304 17.5297 13.4453C17.4841 13.582 17.4613 13.7552 17.4613 13.9648V15.25C17.4613 15.6055 17.4226 15.9199 17.3451 16.1934C17.2722 16.4622 17.1719 16.6969 17.0443 16.8975C16.9213 17.0934 16.78 17.2598 16.6205 17.3965C16.461 17.5378 16.2992 17.6517 16.1352 17.7383C15.7478 17.9479 15.3057 18.0664 14.809 18.0938C14.5674 18.0938 14.3669 18.0732 14.2074 18.0322C14.0479 17.9912 13.9203 17.9342 13.8246 17.8613C13.7289 17.7884 13.6605 17.7041 13.6195 17.6084C13.5831 17.5127 13.5648 17.4102 13.5648 17.3008C13.5648 17.1914 13.5808 17.0889 13.6127 16.9932C13.6492 16.8975 13.7038 16.8132 13.7768 16.7402C13.8497 16.6673 13.9431 16.6104 14.057 16.5693C14.171 16.5283 14.3077 16.5078 14.4672 16.5078C14.6677 16.4941 14.8477 16.4463 15.0072 16.3643C15.0756 16.3278 15.1417 16.2822 15.2055 16.2275C15.2693 16.1729 15.3262 16.1068 15.3764 16.0293C15.4265 15.9473 15.4675 15.8538 15.4994 15.749C15.5313 15.6396 15.5473 15.5143 15.5473 15.373V14.1699C15.5473 13.8555 15.5814 13.5752 15.6498 13.3291C15.7227 13.0785 15.807 12.8665 15.9027 12.6934C15.9984 12.5156 16.0941 12.3789 16.1898 12.2832C16.2855 12.1829 16.3585 12.1237 16.4086 12.1055C16.3585 12.0872 16.2855 12.0303 16.1898 11.9346C16.0941 11.8343 15.9984 11.6976 15.9027 11.5244C15.807 11.3512 15.7227 11.1416 15.6498 10.8955C15.5814 10.6449 15.5473 10.36 15.5473 10.041V9.09766C15.5473 8.94271 15.5313 8.80599 15.4994 8.6875C15.4675 8.56901 15.4265 8.46875 15.3764 8.38672C15.3262 8.30013 15.2693 8.22721 15.2055 8.16797C15.1417 8.10872 15.0756 8.06087 15.0072 8.02441C14.8477 7.93783 14.6677 7.88997 14.4672 7.88086C14.3077 7.88086 14.171 7.86035 14.057 7.81934C13.9431 7.77832 13.8497 7.72135 13.7768 7.64844C13.7038 7.57552 13.6492 7.49121 13.6127 7.39551C13.5808 7.2998 13.5648 7.19727 13.5648 7.08789C13.5648 6.97852 13.5808 6.87598 13.6127 6.78027C13.6492 6.68457 13.7038 6.60026 13.7768 6.52734C13.8542 6.45443 13.9545 6.39746 14.0775 6.35645C14.2006 6.31543 14.3487 6.29492 14.5219 6.29492C14.9366 6.29492 15.3217 6.34733 15.6771 6.45215C16.0372 6.55241 16.3493 6.70508 16.6137 6.91016C16.878 7.11523 17.0854 7.37272 17.2357 7.68262C17.3861 7.99251 17.4613 8.35482 17.4613 8.76953V10.2461C17.4613 10.4603 17.4841 10.638 17.5297 10.7793C17.5753 10.9206 17.6322 11.0368 17.7006 11.1279C17.7689 11.2145 17.8464 11.2852 17.933 11.3398C18.0196 11.3945 18.1039 11.4447 18.1859 11.4902C18.3181 11.5586 18.4275 11.6338 18.5141 11.7158C18.6052 11.7979 18.6508 11.9277 18.6508 12.1055Z" fill="#59A3DE"/>
</svg>
