<svg width="22" height="22" viewBox="0 0 22 22" fill="none" xmlns="http://www.w3.org/2000/svg">
<path fill-rule="evenodd" clip-rule="evenodd" d="M4 0C1.79086 0 0 1.79086 0 4V18C0 20.2091 1.79086 22 4 22H18C20.2091 22 22 20.2091 22 18V4C22 1.79086 20.2091 0 18 0H4ZM5 5C4.44772 5 4 5.44772 4 6C4 6.55228 4.44772 7 5 7H17C17.5523 7 18 6.55228 18 6C18 5.44772 17.5523 5 17 5H5ZM4 11C4 10.4477 4.44772 10 5 10H17C17.5523 10 18 10.4477 18 11C18 11.5523 17.5523 12 17 12H5C4.44772 12 4 11.5523 4 11ZM5 15C4.44772 15 4 15.4477 4 16C4 16.5523 4.44772 17 5 17H13C13.5523 17 14 16.5523 14 16C14 15.4477 13.5523 15 13 15H5Z" fill="#FFC700"/>
</svg>
